<?xml version="1.0" encoding="utf-8"?>
<!-- Generator: Adobe Illustrator 16.0.0, SVG Export Plug-In . SVG Version: 6.00 Build 0)  -->
<!DOCTYPE svg PUBLIC "-//W3C//DTD SVG 1.1//EN" "http://www.w3.org/Graphics/SVG/1.1/DTD/svg11.dtd">
<svg version="1.1" id="Layer_1" xmlns="http://www.w3.org/2000/svg" xmlns:xlink="http://www.w3.org/1999/xlink" x="0px" y="0px"
	 width="140px" height="140px" viewBox="0 0 140 140" enable-background="new 0 0 140 140" xml:space="preserve">
<g id="_x33_4_6_">
	<linearGradient id="SVGID_1_" gradientUnits="userSpaceOnUse" x1="112.8149" y1="309.4028" x2="167.5171" y2="309.4028">
		<stop  offset="0.5" style="stop-color:#FFFFFF"/>
		<stop  offset="0.5" style="stop-color:#EBEBEB"/>
	</linearGradient>
	<path fill="url(#SVGID_1_)" d="M140.167,282.052c-15.083,0-27.352,12.27-27.352,27.35c0,15.087,12.269,27.353,27.352,27.353
		s27.351-12.266,27.351-27.353C167.517,294.322,155.25,282.052,140.167,282.052z"/>
	<path fill="#F79457" d="M161.908,309.402c0,11.994-9.754,21.744-21.741,21.744s-21.739-9.75-21.739-21.744
		c0-11.985,9.752-21.739,21.739-21.739S161.908,297.417,161.908,309.402z"/>
	<g>
		<path fill="#ECECEC" d="M160.859,315.739v-0.283h-0.467v-0.185v-0.282h-0.468v-0.187v-0.282h-0.468v-0.185v-0.283h-0.469v-0.184
			v-0.284h-0.466v-0.185v-0.283h-0.469v-0.184v-0.284h-0.466v-0.185v-0.284h-0.468V312v-0.283h-0.469v-0.186v-0.283h-0.468v-0.184
			v-0.283h-0.467v-0.185v-0.284h-0.468v-0.185v-0.282h-0.468v-0.185v-0.284h-0.468v-0.185v-0.282h-0.467v-0.185v-0.283h-0.468
			v-0.186v-0.283h-0.468v-0.183v-0.284h-0.467v-0.185v-0.283h-0.468v-0.185v-0.283h-0.468v-0.185v-0.284h-0.467v-0.184v-0.283
			h-0.469v-0.186v-0.283h-0.468v-0.185v-0.282h-0.467v-0.185v-0.282h-0.467v-0.187v-0.282h-0.469v-0.185v-0.283h-0.468v-0.186
			v-0.283h-0.467v-0.184v-0.283H147.3v-0.186v-0.283h-0.468v-0.184v-0.284h-0.468v-0.184v-0.285h-0.467v-0.184v-0.283h-0.468v-0.185
			v-0.284h-0.468v-0.184v-0.283h-0.467v-0.185v-0.284h-0.468v-0.185v-0.282h-3.42v0.282v1.12h-0.386v-0.184v-0.283h-0.468v-0.185
			v-0.284h-0.468v-0.185v-0.282h-3.425v0.282v2.752c-0.129,0.076-0.255,0.157-0.379,0.243c-1.357,0.938-2.035,2.16-2.035,3.669
			c0,0.049,0,0.097,0,0.146c0-0.007,0.002-0.016,0.002-0.021c0.021,1.063,0.305,1.955,0.859,2.669
			c0.069,0.093,0.149,0.182,0.229,0.268c0.024,0.026,0.054,0.054,0.078,0.076c0.062,0.061,0.122,0.121,0.186,0.177
			c0.022,0.02,0.046,0.041,0.071,0.059c0.044,0.053,0.086,0.106,0.133,0.155c0.024,0.027,0.054,0.054,0.077,0.077
			c0.063,0.059,0.122,0.121,0.187,0.177c0.022,0.021,0.048,0.038,0.07,0.058c0.043,0.053,0.086,0.106,0.133,0.156
			c0.024,0.025,0.054,0.053,0.078,0.076c0.064,0.059,0.121,0.122,0.187,0.177c0.023,0.021,0.049,0.042,0.072,0.061
			c0.045,0.051,0.085,0.104,0.131,0.154c0.025,0.026,0.054,0.053,0.078,0.075c0.063,0.059,0.121,0.123,0.187,0.178
			c0.021,0.021,0.047,0.038,0.07,0.058c0.045,0.054,0.088,0.105,0.133,0.155c0.024,0.026,0.055,0.054,0.077,0.077
			c0.063,0.06,0.122,0.122,0.187,0.177c0.022,0.021,0.046,0.038,0.068,0.056c0.046,0.055,0.089,0.106,0.137,0.159
			c0.023,0.026,0.053,0.054,0.076,0.076c0.063,0.06,0.123,0.121,0.187,0.179c0.022,0.021,0.05,0.042,0.072,0.061
			c0.045,0.052,0.086,0.102,0.132,0.151c0.024,0.027,0.053,0.055,0.077,0.079c0.063,0.059,0.122,0.119,0.187,0.177
			c0.021,0.02,0.047,0.038,0.07,0.057c0.044,0.052,0.087,0.105,0.133,0.156c0.024,0.023,0.054,0.052,0.078,0.076
			c0.063,0.059,0.121,0.121,0.186,0.177c0.022,0.019,0.048,0.04,0.071,0.059c0.044,0.051,0.086,0.104,0.133,0.154
			c0.024,0.026,0.055,0.055,0.077,0.079c0.064,0.059,0.121,0.12,0.187,0.177c0.022,0.019,0.048,0.038,0.07,0.057
			c0.044,0.053,0.087,0.105,0.134,0.157c0.024,0.025,0.054,0.052,0.078,0.076c0.062,0.059,0.121,0.122,0.186,0.177
			c0.021,0.019,0.047,0.041,0.07,0.059c0.045,0.051,0.087,0.105,0.134,0.154c0.025,0.027,0.054,0.055,0.078,0.078
			c0.062,0.059,0.121,0.121,0.187,0.178c0.021,0.019,0.046,0.038,0.069,0.057c0.045,0.054,0.086,0.106,0.134,0.157
			c0.024,0.026,0.054,0.053,0.077,0.076c0.063,0.059,0.122,0.122,0.187,0.177c0.021,0.02,0.047,0.04,0.069,0.059
			c0.043,0.049,0.083,0.101,0.127,0.146c-0.21,0.02-0.402,0.035-0.554,0.035c-0.973,0-1.979-0.186-3.013-0.554
			c-1.032-0.371-1.981-0.898-2.838-1.581h-0.392v0.279v3.554c0.15,0.064,0.312,0.115,0.467,0.174v0.295
			c0.15,0.062,0.312,0.115,0.468,0.173v0.293c0.15,0.064,0.312,0.117,0.468,0.175v0.294c0.148,0.062,0.312,0.114,0.467,0.173v0.293
			c0.15,0.064,0.312,0.116,0.468,0.175v0.294c0.058,0.025,0.121,0.042,0.18,0.067v1.291h0.468v0.468h0.469v0.467h0.467v0.468h0.468
			v0.466h0.468v0.467h0.467v0.468h0.468v0.468h0.468v0.467h0.467v0.467h0.468v0.469h0.468v0.467h0.468v0.468h0.467v0.467h0.468
			v0.469h0.468v0.466h0.467v0.466h0.468v0.469h0.468v0.466h0.469v0.469h0.467v0.467h0.468v0.467h0.467v0.468h0.468v0.219
			c6.786-2.112,12.157-7.468,14.292-14.244h-0.049V315.739z"/>
	</g>
</g>
<text transform="matrix(1 0 0 1 132.8955 318.0132)" fill="#FFFFFF" font-family="'Anton'" font-size="25.2476">2</text>
<g id="_x31_0_1_">
	<path fill="#FFFFFF" d="M85.697,328.154c0.175,1.45-0.848,2.346-2.266,1.996l-10.314-2.575c-1.421-0.355-3.417,0.203-4.452,1.248
		l-7.459,7.563c-1.031,1.045-2.371,0.809-2.977-0.521l-4.41-9.677c-0.607-1.326-2.303-2.543-3.76-2.697l-10.572-1.116
		c-1.454-0.154-2.104-1.347-1.436-2.652l4.805-9.479c0.667-1.309,0.562-3.387-0.228-4.62l-5.719-8.96
		c-0.785-1.23-0.256-2.487,1.177-2.785l10.414-2.146c1.428-0.295,2.987-1.674,3.465-3.058l3.443-10.062
		c0.473-1.38,1.784-1.748,2.903-0.812l8.173,6.794c1.126,0.938,3.172,1.3,4.55,0.809l10.015-3.585
		c1.374-0.491,2.478,0.308,2.451,1.766l-0.22,10.628c-0.034,1.463,0.962,3.291,2.205,4.063l9.044,5.592
		c1.242,0.771,1.309,2.125,0.149,3.016l-8.446,6.457c-1.164,0.883-1.978,2.808-1.801,4.255L85.697,328.154z"/>
	<path fill="#F79457" d="M58.509,332.893l-3.918-8.578c-0.203-0.447-0.641-0.948-1.163-1.326l0,0
		c-0.531-0.378-1.137-0.633-1.626-0.685l0,0l-9.377-0.988c-0.596-0.062-1.124-0.289-1.51-0.672l0,0
		c-0.383-0.376-0.598-0.909-0.598-1.458l0,0c0-0.396,0.104-0.801,0.298-1.186l0,0l4.271-8.406c0.201-0.387,0.315-0.949,0.311-1.521
		l0,0c0.005-0.719-0.181-1.458-0.482-1.915l0,0l-5.064-7.948c-0.282-0.436-0.43-0.906-0.43-1.371l0,0
		c-0.023-1.036,0.798-1.907,1.896-2.108l0,0l9.229-1.906c0.481-0.097,1.065-0.414,1.55-0.845l0,0
		c0.491-0.425,0.869-0.966,1.027-1.43l0,0l3.052-8.921c0.321-0.967,1.138-1.648,2.068-1.638l0,0c0.555,0,1.099,0.228,1.563,0.615
		l0,0l7.258,6.034c0.525,0.443,1.5,0.76,2.37,0.755l0,0c0.378,0,0.729-0.061,1.02-0.159l0,0l8.872-3.179
		c0.308-0.105,0.619-0.167,0.922-0.167l0,0c0.593-0.004,1.164,0.229,1.551,0.66l0,0c0.391,0.426,0.593,1.014,0.593,1.65l0,0
		c0,0.009,0,0.028,0,0.062l0,0l-0.197,9.435c0,0.018-0.005,0.029,0,0.034l0,0c-0.031,1.001,0.79,2.485,1.646,2.982l0,0l8.012,4.958
		c0.729,0.439,1.186,1.156,1.186,1.933l0,0c0,0.698-0.378,1.369-0.996,1.835l0,0l-7.491,5.728c-0.735,0.535-1.378,1.887-1.355,2.885
		l0,0c0,0.102,0.003,0.193,0.019,0.282l0,0l1.118,9.359l-0.662,0.083l0.662-0.083c0.018,0.123,0.024,0.241,0.024,0.36l0,0
		c0,0.615-0.209,1.186-0.604,1.599l0,0c-0.396,0.413-0.966,0.633-1.559,0.633l0,0c-0.224,0-0.461-0.031-0.695-0.092l0,0
		l-9.144-2.289c-0.197-0.048-0.417-0.074-0.662-0.074l0,0c-0.94-0.013-2.104,0.434-2.649,1.005l0,0l-6.618,6.712
		c-0.485,0.491-1.086,0.771-1.705,0.771l0,0h-0.008l0,0C59.653,334.32,58.878,333.75,58.509,332.893L58.509,332.893z M57.236,282.06
		l-3.052,8.92c-0.26,0.76-0.779,1.44-1.411,2.002l0,0c-0.622,0.552-1.369,0.975-2.16,1.142l0,0l-9.232,1.905
		c-0.641,0.163-0.817,0.449-0.834,0.809l0,0c0,0.175,0.061,0.399,0.219,0.649l0,0l5.078,7.951c0.474,0.76,0.685,1.705,0.692,2.634
		l0,0c-0.004,0.748-0.139,1.484-0.465,2.122l0,0l-4.261,8.406c-0.118,0.233-0.163,0.426-0.163,0.585l0,0
		c0.006,0.227,0.072,0.377,0.208,0.509l0,0c0.133,0.137,0.36,0.26,0.71,0.298l0,0l9.375,0.989c0.799,0.087,1.58,0.438,2.266,0.926
		l0,0c0.68,0.491,1.255,1.124,1.594,1.854l0,0l3.918,8.573c0.241,0.51,0.53,0.649,0.804,0.654l0,0c0.206,0,0.471-0.083,0.756-0.374
		l0,0l6.619-6.71c0.904-0.904,2.297-1.396,3.598-1.406l0,0c0.338,0,0.666,0.035,0.983,0.115l0,0l9.144,2.283
		c0.141,0.041,0.265,0.055,0.374,0.055l0,0c0.288-0.009,0.471-0.089,0.601-0.22l0,0c0.123-0.142,0.229-0.344,0.229-0.677l0,0
		c0-0.062-0.007-0.132-0.013-0.201l0,0l0,0l-1.119-9.355c-0.018-0.15-0.027-0.299-0.027-0.444l0,0
		c0.018-1.462,0.733-3.044,1.876-3.944l0,0l7.488-5.727c0.363-0.286,0.475-0.559,0.475-0.777l0,0c0-0.247-0.124-0.527-0.549-0.799
		l0,0l-8.016-4.964c-1.327-0.852-2.249-2.53-2.28-4.111l0,0c0-0.031,0.004-0.052,0.004-0.071l0,0l0.194-9.407
		c0-0.019,0-0.03,0-0.054l0,0c0-0.372-0.114-0.606-0.241-0.75l0,0c-0.133-0.145-0.295-0.224-0.567-0.228l0,0
		c-0.136,0-0.294,0.026-0.474,0.091l0,0l-8.88,3.175c-0.459,0.164-0.958,0.234-1.46,0.234l0,0c-1.159-0.004-2.363-0.352-3.229-1.063
		l0,0l-7.246-6.026c-0.277-0.233-0.523-0.307-0.717-0.307l0,0C57.736,281.335,57.446,281.488,57.236,282.06L57.236,282.06z"/>
	<g>
		<path fill="#ECECEC" d="M88.57,309.361l0.133-0.506h-0.639l0.137-0.5h-0.642l0.131-0.509h-0.635l0.135-0.501h-0.642l0.138-0.5
			h-0.639l0.137-0.506h-0.641l0.135-0.505h-0.64l0.136-0.505h-0.638l0.137-0.505h-0.642l0.138-0.5h-0.643l0.136-0.506h-0.635
			l0.13-0.504h-0.641l0.141-0.5h-0.643l0.138-0.505H80.11l-0.746,3.29l-0.062-0.269h-0.378l-0.128-0.505h-0.378l-0.126-0.5h-0.378
			l-0.133-0.506h-0.368l-0.132-0.504h-0.378l-0.123-0.5h-0.377l-0.133-0.505h-2.108l-0.947,3.425l-0.099-0.403h-0.386l-0.114-0.505
			H72.23l-0.118-0.5h-0.387l-0.117-0.506H71.22l-0.114-0.504h-0.391l-0.109-0.5H70.21l-0.115-0.505h-2.199l0.545,2.016h-0.234
			v-0.506h-0.509v-0.504h-0.501v-0.5h-0.501v-0.505h-5.767v2.516h-0.455v-0.5h-0.507v-0.506h-0.5v-0.504h-0.505v-0.5h-0.505v-0.505
			h-1.906v5.037H56.53l-0.331-0.5h-0.176l-0.323-0.506h-0.177l-0.33-0.505h-0.175l-0.33-0.505h-0.176l-0.324-0.505h-0.18l-0.325-0.5
			h-0.18l-0.324-0.506h-0.178l-0.324-0.504h-0.181l-0.329-0.5h-0.176l-0.325-0.505h-2.234v10.36h0.504v0.502h0.501v0.5h0.504v0.509
			h0.506v0.5h0.51v0.502h0.502v0.509h0.499v0.499h0.505v0.507h0.505v0.504h0.507v0.501h0.5v0.501h0.504v0.509h0.506v0.5h0.505v0.506
			h0.501v0.504h0.51v0.5H58v0.506H58.5v0.504h0.51v0.501h0.503v0.504h0.504v0.51h0.505v0.496h0.502v0.505h0.499v0.505h0.511v0.509
			h0.501v0.5h0.5v0.506h0.509v0.505h0.502v0.5h0.504v0.504h0.506v0.506h0.501v0.5h0.505v0.505h0.364l2.42-2.456
			c0.545-0.571,1.709-1.018,2.649-1.005c0.245,0,0.465,0.026,0.662,0.074l9.144,2.289c0.234,0.062,0.472,0.092,0.695,0.092
			c0.593,0,1.163-0.22,1.559-0.633c0.395-0.413,0.604-0.983,0.604-1.599c0-0.119-0.007-0.237-0.024-0.36l-1.118-9.359
			c-0.016-0.089-0.019-0.18-0.019-0.282c-0.022-0.998,0.62-2.35,1.355-2.885l4.824-3.686l0.026-0.123H88.57z"/>
	</g>
	<path fill="#F79457" d="M56.551,302.307h1.906v10.36h-2.092l-4.589-7.022c-0.186-0.286-0.339-0.549-0.461-0.795h-0.032
		c0.039,0.325,0.059,0.861,0.059,1.6v6.218h-1.91v-10.36h2.234l4.419,6.829c0.229,0.348,0.396,0.615,0.491,0.8h0.036
		c-0.044-0.175-0.062-0.659-0.062-1.439V302.307z M62.933,308.276h3.491v-1.669h-3.491v-2.637h3.763v-1.664h-5.767v10.36h5.995
		v-1.664h-3.991V308.276z M80.11,302.307l-1.631,7.217c-0.082,0.36-0.135,0.732-0.165,1.11h-0.029
		c-0.059-0.488-0.107-0.843-0.17-1.068l-1.844-7.259h-2.108l-1.993,7.181c-0.123,0.447-0.192,0.834-0.211,1.16H71.91
		c-0.025-0.44-0.073-0.817-0.146-1.129l-1.669-7.212h-2.199l2.814,10.36h2.311l1.881-6.921c0.069-0.268,0.13-0.641,0.185-1.124
		h0.034c0.018,0.421,0.074,0.798,0.158,1.134l1.845,6.911h2.24l2.789-10.36H80.11z"/>
</g>
<path id="color_43_" fill="#8BC9D8" d="M636.58,259.585c0,3.633-2.947,6.578-6.578,6.578h-59.371c-3.631,0-6.576-2.945-6.576-6.578
	v-59.37c0-3.631,2.945-6.575,6.576-6.575h59.371c3.631,0,6.578,2.944,6.578,6.575V259.585z"/>
<path fill="#ECECEC" d="M636.836,259.618v-34.57c-0.014-0.014-0.027-0.029-0.043-0.043c-0.166-0.2-0.35-0.382-0.543-0.557
	c-0.168-0.198-0.352-0.383-0.545-0.556c-0.17-0.199-0.355-0.386-0.553-0.561c-0.166-0.198-0.35-0.38-0.543-0.553
	c-0.168-0.2-0.35-0.382-0.545-0.555c-0.17-0.204-0.355-0.389-0.553-0.565c-0.166-0.198-0.35-0.38-0.543-0.552
	c-0.166-0.199-0.352-0.385-0.547-0.558c-0.168-0.201-0.354-0.386-0.549-0.56c-0.168-0.199-0.352-0.383-0.547-0.556
	c-0.166-0.2-0.352-0.383-0.545-0.556c-0.168-0.2-0.352-0.383-0.547-0.557c-0.168-0.201-0.354-0.388-0.551-0.562
	c-0.166-0.196-0.348-0.38-0.541-0.552c-0.168-0.2-0.352-0.383-0.547-0.558c-0.168-0.201-0.354-0.387-0.549-0.56
	c-0.168-0.201-0.354-0.386-0.549-0.56c-0.166-0.198-0.348-0.38-0.541-0.55c-0.168-0.202-0.355-0.391-0.553-0.565
	c-0.168-0.198-0.35-0.382-0.545-0.553c-0.166-0.199-0.352-0.385-0.547-0.558c-0.168-0.2-0.354-0.385-0.547-0.558
	c-0.168-0.2-0.352-0.384-0.545-0.555c-0.168-0.201-0.354-0.386-0.547-0.56c-0.17-0.199-0.354-0.384-0.549-0.557
	c-0.166-0.199-0.35-0.382-0.545-0.555c-0.166-0.202-0.354-0.388-0.551-0.562c-0.166-0.199-0.348-0.381-0.541-0.553
	c-0.17-0.201-0.355-0.387-0.551-0.56c-0.168-0.2-0.352-0.384-0.545-0.557c-0.168-0.198-0.352-0.383-0.547-0.557
	c-0.168-0.2-0.354-0.385-0.549-0.559c-0.166-0.198-0.35-0.381-0.543-0.554c-0.168-0.2-0.352-0.383-0.547-0.558
	c-0.17-0.2-0.355-0.385-0.551-0.56c-0.166-0.197-0.35-0.381-0.541-0.554c-0.17-0.202-0.357-0.387-0.553-0.562
	c-0.166-0.197-0.35-0.381-0.541-0.553c-0.986-1.173-2.463-1.921-4.115-1.926h-26.219c-2.967,0.008-5.365,2.408-5.375,5.376v43.156
	c0.006,1.598,0.705,3.024,1.811,4.009c0.166,0.199,0.352,0.384,0.547,0.558c0.166,0.2,0.35,0.382,0.543,0.555
	c0.17,0.201,0.355,0.386,0.551,0.561c0.168,0.199,0.35,0.382,0.543,0.555c0.168,0.199,0.354,0.383,0.549,0.557
	c0.168,0.201,0.354,0.386,0.549,0.561c0.166,0.198,0.35,0.38,0.543,0.553c0.168,0.199,0.352,0.383,0.547,0.556
	c0.168,0.203,0.354,0.388,0.551,0.563c0.166,0.199,0.35,0.38,0.543,0.551c0.168,0.202,0.354,0.388,0.549,0.562
	c0.168,0.198,0.354,0.383,0.547,0.556c0.168,0.198,0.35,0.38,0.543,0.553c0.17,0.203,0.355,0.389,0.555,0.565
	c0.166,0.196,0.348,0.377,0.539,0.549c0.168,0.202,0.354,0.388,0.551,0.562c0.166,0.198,0.352,0.382,0.545,0.556
	c0.168,0.2,0.354,0.385,0.551,0.56c0.164,0.198,0.348,0.382,0.543,0.553c0.168,0.201,0.352,0.385,0.547,0.559
	c0.168,0.199,0.354,0.383,0.547,0.558c0.016,0.017,0.031,0.029,0.047,0.046h36.609C633.891,266.194,636.836,263.249,636.836,259.618
	z"/>
<rect x="354.961" y="289.365" fill="none" stroke="#757573" stroke-width="2" stroke-miterlimit="10" width="44.219" height="33.871"/>
<rect x="352.326" y="286.543" fill="none" stroke="#757573" stroke-width="2" stroke-miterlimit="10" width="49.301" height="39.139"/>
<polyline fill="none" stroke="#757573" stroke-width="2" stroke-miterlimit="10" points="352.326,290.4 347.623,290.4 
	350.164,328.974 382.293,327.435 "/>
<polyline fill="none" stroke="#757573" stroke-width="2" stroke-miterlimit="10" points="401.627,290.4 406.332,290.4 
	403.414,328.974 358.254,325.682 "/>
<polygon fill="#8BC9D8" stroke="#757573" stroke-miterlimit="10" points="354.867,309.099 360.207,306.112 364.369,309.97 
	369.732,304.889 376.883,309.334 387.654,298.75 399.086,305.859 399.086,289.508 354.867,289.365 "/>
<circle fill="#E5E97C" cx="387.232" cy="300.42" r="4.939"/>
<polygon fill="#9EACB0" stroke="#757573" stroke-miterlimit="10" points="354.961,309.099 360.301,306.112 364.463,309.97 
	369.826,304.889 376.977,309.334 387.75,298.75 399.18,305.859 399.18,308.929 392.336,308.841 388.102,309.264 381.963,310.464 
	376.178,312.439 374.035,313.475 364.959,312.604 357.689,312.157 354.961,311.981 "/>
<polygon fill="#6DC6A9" stroke="#757573" stroke-miterlimit="10" points="373.777,313.286 379.494,314.486 385.562,316.32 
	392.619,319.566 399.18,322.336 399.18,308.929 391.982,308.841 385.949,309.688 379.75,311.099 "/>
<polygon fill="#9899CB" stroke="#757573" stroke-miterlimit="10" points="354.961,311.981 354.961,323.236 399.18,323.236 
	399.18,322.336 394.098,320.068 389.143,317.805 385.914,316.32 379.947,314.516 374.131,313.286 364.285,312.414 "/>
<ellipse fill="#FFFFFF" cx="361.773" cy="296.006" rx="3.02" ry="1.396"/>
<ellipse fill="#FFFFFF" cx="365.563" cy="295.48" rx="3.28" ry="2.18"/>
<ellipse fill="#FFFFFF" cx="369.197" cy="296.006" rx="1.965" ry="1.133"/>
<ellipse fill="#FFFFFF" cx="371.011" cy="300.045" rx="2.167" ry="1.001"/>
<ellipse fill="#FFFFFF" cx="373.731" cy="299.667" rx="2.354" ry="1.564"/>
<ellipse fill="#FFFFFF" cx="376.34" cy="300.044" rx="1.41" ry="0.813"/>
<path id="_x35__14_" fill="#92A4B0" d="M332.146,332.007c0,3.518-2.854,6.37-6.371,6.37h-57.507c-3.518,0-6.368-2.852-6.368-6.37
	v-57.505c0-3.518,2.851-6.369,6.368-6.369h57.507c3.518,0,6.371,2.852,6.371,6.369V332.007z"/>
<path fill="#ECECEC" d="M332.336,332.053v-33.8c-0.133-0.151-0.277-0.294-0.428-0.426c-0.135-0.158-0.285-0.304-0.439-0.442
	c-0.139-0.158-0.287-0.306-0.445-0.444c-0.137-0.158-0.285-0.308-0.443-0.444c-0.139-0.158-0.285-0.306-0.443-0.442
	c-0.139-0.158-0.285-0.307-0.443-0.444c-0.137-0.156-0.285-0.303-0.439-0.439c-0.139-0.158-0.287-0.307-0.447-0.446
	c-0.135-0.157-0.283-0.304-0.441-0.442c-0.137-0.156-0.283-0.304-0.439-0.44c-0.137-0.158-0.285-0.306-0.443-0.443
	c-0.137-0.158-0.287-0.306-0.443-0.443c-0.139-0.159-0.285-0.307-0.445-0.444c-0.137-0.157-0.283-0.305-0.441-0.442
	c-0.834-0.958-2.059-1.564-3.428-1.564h-5.346c-0.088-0.09-0.18-0.177-0.277-0.26c-0.137-0.159-0.285-0.307-0.445-0.446
	c-0.137-0.157-0.283-0.304-0.441-0.441c-0.137-0.159-0.285-0.307-0.445-0.444c-0.135-0.157-0.281-0.305-0.439-0.441
	c-0.137-0.158-0.285-0.306-0.443-0.443c-0.137-0.158-0.283-0.306-0.441-0.442c-0.139-0.157-0.285-0.306-0.441-0.442
	c-0.137-0.158-0.287-0.306-0.445-0.444c-0.137-0.158-0.285-0.307-0.443-0.443c-0.137-0.158-0.283-0.305-0.441-0.441
	c-0.139-0.16-0.285-0.307-0.445-0.444c-0.135-0.157-0.281-0.304-0.439-0.441c-0.139-0.16-0.287-0.309-0.447-0.446
	c-0.137-0.158-0.283-0.304-0.439-0.44c-0.137-0.158-0.283-0.305-0.441-0.44c-0.137-0.159-0.285-0.308-0.443-0.445
	c-0.137-0.157-0.285-0.304-0.441-0.44c-0.137-0.159-0.287-0.308-0.443-0.446c-0.141-0.158-0.287-0.305-0.445-0.443
	c-0.137-0.158-0.285-0.306-0.441-0.443c-0.139-0.158-0.285-0.304-0.443-0.442c-0.137-0.157-0.283-0.305-0.439-0.441
	c-0.141-0.159-0.289-0.308-0.447-0.446c-0.135-0.156-0.283-0.301-0.438-0.438c-0.139-0.16-0.287-0.309-0.447-0.447
	c-0.137-0.157-0.283-0.305-0.441-0.442c-0.137-0.158-0.285-0.306-0.445-0.443c-0.135-0.158-0.283-0.305-0.439-0.441
	c-0.137-0.16-0.287-0.308-0.445-0.446c-0.137-0.156-0.285-0.303-0.441-0.439c-0.137-0.16-0.285-0.307-0.443-0.445
	c-0.137-0.155-0.283-0.301-0.438-0.437c-0.139-0.161-0.291-0.312-0.451-0.449c-0.135-0.157-0.281-0.304-0.438-0.438
	c-0.139-0.16-0.289-0.31-0.447-0.449c-0.135-0.155-0.281-0.301-0.436-0.436c-0.141-0.16-0.289-0.309-0.447-0.446
	c-0.807-0.93-1.994-1.52-3.321-1.52c-2.428,0-4.397,1.97-4.397,4.398c0,1.123,0.425,2.143,1.117,2.921l-11.776,10.844h-10.292
	c-2.513,0-4.548,2.036-4.548,4.548v21.631c0,1.367,0.607,2.592,1.563,3.425c0.137,0.157,0.283,0.305,0.44,0.441
	c0.139,0.159,0.288,0.308,0.446,0.446c0.137,0.157,0.284,0.303,0.439,0.439c0.138,0.159,0.287,0.308,0.446,0.447
	c0.137,0.155,0.283,0.302,0.438,0.438c0.139,0.158,0.288,0.307,0.446,0.445c0.137,0.158,0.285,0.305,0.442,0.443
	c0.139,0.158,0.287,0.306,0.444,0.444c0.137,0.157,0.284,0.305,0.442,0.441c0.137,0.158,0.285,0.306,0.443,0.442
	c0.136,0.158,0.284,0.306,0.441,0.443c0.137,0.157,0.284,0.305,0.44,0.442c0.139,0.158,0.288,0.306,0.445,0.443
	c0.137,0.158,0.283,0.305,0.441,0.441c0.137,0.159,0.285,0.307,0.443,0.445c0.139,0.158,0.286,0.306,0.444,0.443
	c0.137,0.157,0.284,0.305,0.441,0.442c0.138,0.158,0.287,0.307,0.444,0.445c0.137,0.157,0.284,0.304,0.441,0.441
	c0.137,0.157,0.284,0.305,0.442,0.441c0.137,0.157,0.283,0.304,0.44,0.442c0.138,0.159,0.287,0.308,0.445,0.445
	c0.138,0.158,0.285,0.304,0.44,0.44c0.138,0.159,0.286,0.307,0.445,0.445c0.137,0.159,0.285,0.307,0.444,0.444
	c0.137,0.158,0.284,0.305,0.443,0.442c0.137,0.158,0.284,0.305,0.44,0.442c0.137,0.156,0.283,0.304,0.441,0.44
	c0.138,0.159,0.288,0.308,0.447,0.447c0.136,0.155,0.282,0.302,0.437,0.438c0.137,0.158,0.286,0.305,0.442,0.443
	c0.141,0.158,0.288,0.307,0.445,0.445c0.138,0.157,0.286,0.304,0.442,0.441c0.139,0.16,0.288,0.308,0.446,0.447
	c0.137,0.156,0.283,0.302,0.44,0.439c0.138,0.157,0.285,0.306,0.443,0.443c0.137,0.157,0.284,0.304,0.44,0.44
	c0.138,0.159,0.288,0.308,0.446,0.446c0.136,0.157,0.281,0.303,0.437,0.438c0.14,0.16,0.29,0.311,0.449,0.449
	c0.137,0.156,0.282,0.301,0.438,0.436c0.051,0.059,0.11,0.109,0.163,0.164h38.587C329.482,338.423,332.336,335.572,332.336,332.053z
	 M283.266,290.506h-0.042l11.319-10.424c0.007,0.007,0.011,0.016,0.018,0.023L283.266,290.506z M284.188,290.506h-0.04l10.839-9.982
	c0.005,0.008,0.011,0.017,0.017,0.024L284.188,290.506z M285.111,290.506h-0.04l10.357-9.539c0,0.001,0.001,0.001,0.001,0.001
	c0.007,0.007,0.012,0.014,0.017,0.022L285.111,290.506z M286.036,290.506h-0.042l9.878-9.096c0.006,0.007,0.011,0.017,0.018,0.024
	L286.036,290.506z M286.959,290.506h-0.04l9.395-8.653c0.007,0.007,0.012,0.017,0.019,0.023L286.959,290.506z M287.842,290.506
	l8.915-8.21c0.006,0.006,0.01,0.016,0.017,0.023l-8.892,8.187H287.842z M288.765,290.506l8.434-7.768l0.003,0.001
	c0.005,0.007,0.009,0.015,0.014,0.021l-8.409,7.746H288.765z M289.689,290.506l7.953-7.324c0.007,0.007,0.012,0.015,0.017,0.022
	l-7.928,7.302H289.689z M290.614,290.506l7.471-6.882c0.007,0.007,0.011,0.016,0.018,0.022l-7.448,6.859H290.614z M291.537,290.506
	l6.991-6.439c0.007,0.007,0.011,0.016,0.017,0.022l-6.967,6.417H291.537z M292.459,290.506l6.512-5.998
	c0.005,0.008,0.011,0.017,0.018,0.024l-6.488,5.974H292.459z M293.383,290.506l6.031-5.554l0,0c0.006,0.008,0.012,0.016,0.018,0.023
	l-6.006,5.53H293.383z M294.307,290.506l5.548-5.111c0.008,0.007,0.012,0.017,0.018,0.024l-5.525,5.087H294.307z M295.23,290.506
	l5.069-4.669c0,0.001,0,0.001,0,0.002c0.008,0.006,0.012,0.015,0.018,0.022l-5.044,4.645H295.23z M296.153,290.506l4.589-4.226
	v0.001c0.008,0.007,0.012,0.015,0.018,0.021l-4.564,4.204H296.153z M297.077,290.506l4.109-3.783v0
	c0.006,0.008,0.01,0.015,0.016,0.021l-4.083,3.761H297.077z M298,290.506l3.626-3.34v0.001c0.006,0.006,0.012,0.015,0.018,0.021
	l-3.603,3.317H298z M298.923,290.506l3.147-2.897c0.006,0.007,0.01,0.015,0.016,0.022l-3.121,2.875H298.923z M299.848,290.506
	l2.664-2.455h0.002c0.006,0.006,0.01,0.016,0.016,0.022l-2.641,2.432H299.848z M300.77,290.506l2.186-2.013
	c0.008,0.008,0.012,0.018,0.018,0.024l-2.16,1.988H300.77z M301.695,290.506l1.703-1.569c0.008,0.007,0.01,0.016,0.018,0.023
	l-1.678,1.546H301.695z M302.619,290.506l1.223-1.126c0.006,0.007,0.01,0.017,0.016,0.023l-1.197,1.103H302.619z M303.582,290.506
	h-0.039l0.742-0.683c0.004,0.006,0.01,0.015,0.016,0.022L303.582,290.506z M304.508,290.506h-0.043l0.262-0.241
	c0,0.001,0.002,0.002,0.002,0.002c0.006,0.006,0.01,0.014,0.016,0.021L304.508,290.506z"/>
<g id="_x35__13_">
	<g>
		<circle fill="#92A4B0" cx="297.398" cy="276.742" r="1.74"/>
		<g>
			<circle fill="#FFFFFF" cx="312.94" cy="290.716" r="0.969"/>
			<circle fill="#FFFFFF" cx="310.685" cy="288.607" r="0.966"/>
			
				<ellipse transform="matrix(-0.7309 -0.6825 0.6825 -0.7309 338.303 706.3996)" fill="#FFFFFF" cx="308.428" cy="286.499" rx="0.965" ry="0.97"/>
			<circle fill="#FFFFFF" cx="306.172" cy="284.392" r="0.965"/>
			<circle fill="#FFFFFF" cx="303.914" cy="282.284" r="0.965"/>
			
				<ellipse transform="matrix(-0.7307 -0.6827 0.6827 -0.7307 330.8258 690.8395)" fill="#FFFFFF" cx="301.658" cy="280.175" rx="0.965" ry="0.97"/>
			
				<ellipse transform="matrix(-0.6778 -0.7352 0.7352 -0.6778 260.1603 695.5665)" fill="#FFFFFF" cx="282.486" cy="290.779" rx="0.969" ry="0.929"/>
			
				<ellipse transform="matrix(-0.6777 -0.7354 0.7354 -0.6777 265.2421 693.7926)" fill="#FFFFFF" cx="284.674" cy="288.765" rx="0.969" ry="0.929"/>
			
				<ellipse transform="matrix(-0.6775 -0.7355 0.7355 -0.6775 270.3115 692.0181)" fill="#FFFFFF" cx="286.861" cy="286.751" rx="0.969" ry="0.929"/>
			
				<ellipse transform="matrix(-0.6768 -0.7362 0.7362 -0.6768 275.0325 690.2333)" fill="#FFFFFF" cx="289.047" cy="284.737" rx="0.969" ry="0.927"/>
			
				<ellipse transform="matrix(-0.677 -0.736 0.736 -0.677 280.3217 688.4703)" fill="#FFFFFF" cx="291.234" cy="282.723" rx="0.969" ry="0.929"/>
			
				<ellipse transform="matrix(-0.677 -0.736 0.736 -0.677 285.4721 686.7033)" fill="#FFFFFF" cx="293.422" cy="280.709" rx="0.969" ry="0.929"/>
		</g>
		<path fill="#596474" d="M327.273,316.685c0,2.511-2.037,4.546-4.549,4.546h-50.675c-2.513,0-4.548-2.036-4.548-4.546v-21.631
			c0-2.512,2.035-4.548,4.548-4.548h50.675c2.512,0,4.549,2.036,4.549,4.548V316.685z"/>
		<g>
			<path fill="#FFFFFF" d="M272.268,295.501v20.735c0,0.458,0.373,0.829,0.831,0.831l0,0h48.577c0.459-0.002,0.83-0.374,0.83-0.831
				l0,0v-20.735c0-0.457-0.371-0.829-0.83-0.832l0,0h-48.577C272.641,294.672,272.268,295.044,272.268,295.501L272.268,295.501z"/>
		</g>
		<path fill="#596474" d="M297.398,272.343c-2.428,0-4.397,1.97-4.397,4.398c0,2.429,1.97,4.398,4.397,4.398
			c2.428,0,4.397-1.969,4.397-4.398C301.795,274.312,299.826,272.343,297.398,272.343z M297.398,279.089
			c-1.296,0-2.348-1.051-2.348-2.348s1.052-2.348,2.348-2.348c1.298,0,2.35,1.051,2.35,2.348S298.696,279.089,297.398,279.089z"/>
	</g>
</g>
<polygon fill="#ECECEC" points="277.421,306.522 290.688,317.068 321.17,317.068 321.676,317.068 322.09,316.952 322.506,316.237 
	322.506,315.203 322.506,311.807 322.506,307.181 317.453,301.818 315.242,300.689 312.607,300.595 310.684,300.619 
	279.719,300.495 277.704,302.595 277.421,305.383 "/>
<text transform="matrix(1 0 0 1 276.481 307.77)" fill="#F1627C" font-family="'Nunito-Bold'" font-size="10.161">CLOSED</text>
<radialGradient id="SVGID_2_" cx="-54.6152" cy="-571.3589" r="59.3448" gradientTransform="matrix(0.4724 0 0 0.4724 213.5671 355.1525)" gradientUnits="userSpaceOnUse">
	<stop  offset="0" style="stop-color:#FFFFFF"/>
	<stop  offset="1" style="stop-color:#010101"/>
</radialGradient>
<path fill="url(#SVGID_2_)" d="M206.65,97.225c-3.557,3.558,1.512-1.511-2.045,2.047"/>
<g>
	<path id="_x38__26_" fill="#C1C1C0" d="M256.958,332.466c0,3.591-2.895,6.503-6.463,6.503h-58.33c-3.565,0-6.457-2.912-6.457-6.503
		v-58.727c0-3.589,2.892-6.503,6.457-6.503h58.33c3.568,0,6.463,2.914,6.463,6.503V332.466z"/>
	<path id="_x38__30_" fill="#ECECEC" d="M256.586,303.116c-0.096-0.141-0.211-0.265-0.341-0.365
		c-0.093-0.142-0.209-0.266-0.342-0.365c-0.093-0.143-0.207-0.265-0.342-0.365c-0.089-0.142-0.206-0.266-0.337-0.365
		c-0.092-0.142-0.206-0.266-0.343-0.366c-0.093-0.144-0.208-0.265-0.338-0.366c-0.092-0.141-0.208-0.264-0.338-0.364
		c-0.096-0.146-0.21-0.267-0.342-0.365c-0.093-0.145-0.208-0.266-0.339-0.366c-0.094-0.143-0.207-0.269-0.344-0.368
		c-0.093-0.14-0.205-0.265-0.34-0.361c-0.093-0.145-0.204-0.269-0.339-0.369c-0.092-0.141-0.208-0.263-0.339-0.363
		c-0.093-0.144-0.208-0.265-0.34-0.366c-0.093-0.143-0.206-0.267-0.341-0.367c-0.095-0.142-0.209-0.267-0.34-0.365
		c-0.093-0.142-0.209-0.265-0.342-0.364c-0.091-0.142-0.205-0.267-0.339-0.366c-0.092-0.143-0.204-0.267-0.339-0.366
		c-0.093-0.142-0.207-0.265-0.34-0.366c-0.092-0.141-0.209-0.264-0.341-0.364c-0.094-0.143-0.209-0.267-0.339-0.367
		c-0.096-0.141-0.21-0.264-0.342-0.363c-0.093-0.142-0.207-0.265-0.339-0.367c-0.093-0.141-0.207-0.264-0.34-0.362
		c-0.093-0.145-0.208-0.268-0.339-0.366c-0.093-0.143-0.212-0.266-0.341-0.366c-0.093-0.142-0.208-0.266-0.342-0.366
		c-0.091-0.141-0.208-0.266-0.339-0.365c-0.094-0.142-0.208-0.267-0.34-0.366c-0.092-0.142-0.207-0.265-0.339-0.365
		c-0.093-0.143-0.206-0.266-0.345-0.366c-0.091-0.14-0.205-0.264-0.336-0.364c-0.093-0.142-0.209-0.266-0.34-0.366
		c-0.095-0.142-0.209-0.268-0.343-0.367c-0.09-0.141-0.205-0.264-0.337-0.362c-0.095-0.144-0.208-0.266-0.345-0.366
		c-0.092-0.143-0.204-0.265-0.337-0.365c-0.094-0.142-0.208-0.267-0.341-0.367c-0.093-0.142-0.205-0.265-0.34-0.364
		c-0.092-0.144-0.207-0.265-0.337-0.366c-0.092-0.142-0.209-0.267-0.341-0.367c-0.095-0.142-0.212-0.266-0.343-0.366
		c-0.092-0.139-0.204-0.264-0.338-0.362c-0.095-0.144-0.207-0.268-0.342-0.367c-0.092-0.142-0.206-0.265-0.339-0.365
		c-0.092-0.143-0.206-0.266-0.339-0.366c-0.093-0.143-0.209-0.265-0.34-0.365c-0.095-0.143-0.211-0.267-0.339-0.366
		c-0.095-0.141-0.211-0.265-0.345-0.364c-0.089-0.143-0.206-0.266-0.338-0.366c-0.093-0.143-0.207-0.266-0.342-0.366
		c-0.09-0.142-0.206-0.265-0.338-0.365c-0.091-0.142-0.206-0.265-0.338-0.364c-0.093-0.143-0.212-0.269-0.344-0.368
		c-0.09-0.142-0.207-0.264-0.339-0.364c-0.093-0.142-0.207-0.267-0.342-0.366c-0.091-0.142-0.205-0.264-0.338-0.364
		c-0.092-0.143-0.206-0.267-0.343-0.367c-0.088-0.141-0.205-0.265-0.337-0.364c-0.093-0.143-0.206-0.265-0.338-0.365
		c-0.095-0.143-0.211-0.267-0.341-0.367c-0.092-0.142-0.209-0.265-0.343-0.365c-0.094-0.143-0.205-0.266-0.343-0.366
		c-0.089-0.142-0.201-0.265-0.337-0.364c-0.094-0.143-0.206-0.268-0.341-0.368c-0.092-0.141-0.205-0.265-0.34-0.365
		c-0.092-0.141-0.206-0.264-0.338-0.363c-0.093-0.143-0.208-0.268-0.342-0.366c-0.09-0.141-0.205-0.265-0.338-0.363
		c-0.092-0.142-0.206-0.268-0.341-0.369c-0.095-0.141-0.209-0.264-0.342-0.363c-0.093-0.143-0.206-0.266-0.338-0.365
		c-0.247-0.379-0.653-0.63-1.115-0.63h-27.698c-0.747,0-1.363,0.658-1.363,1.464v7.279h-0.321c-0.13,0-0.235,0.114-0.235,0.255
		v1.018l-3.495,6.326c0,0.907,0.392,1.713,0.991,2.256c0.104,0.13,0.215,0.253,0.338,0.364c0.106,0.133,0.221,0.255,0.344,0.365
		c0.102,0.133,0.216,0.254,0.34,0.366c0.103,0.133,0.215,0.252,0.339,0.366c0.104,0.13,0.216,0.253,0.34,0.365
		c0.104,0.133,0.215,0.255,0.338,0.365c0.039,0.045,0.07,0.096,0.11,0.141v17.357c0,0.415,0.203,0.775,0.507,0.981
		c0.089,0.146,0.204,0.271,0.339,0.366c0.088,0.147,0.205,0.271,0.342,0.366c0.086,0.146,0.205,0.27,0.341,0.364
		c0.089,0.149,0.204,0.274,0.34,0.365c0.089,0.15,0.202,0.271,0.339,0.366c0.089,0.146,0.203,0.27,0.342,0.365
		c0.085,0.148,0.202,0.273,0.34,0.365c0.085,0.151,0.199,0.273,0.341,0.365c0.084,0.149,0.2,0.275,0.34,0.366
		c0.082,0.148,0.201,0.273,0.338,0.365c0.089,0.149,0.203,0.273,0.34,0.365c0.088,0.15,0.203,0.274,0.342,0.365
		c0.086,0.149,0.199,0.274,0.339,0.364c0.086,0.151,0.202,0.277,0.342,0.367c0.086,0.149,0.202,0.273,0.339,0.365
		c0.088,0.149,0.203,0.272,0.339,0.368c0.088,0.146,0.203,0.27,0.342,0.365c0.086,0.146,0.203,0.271,0.341,0.365
		c0.084,0.147,0.2,0.271,0.337,0.364c0.089,0.147,0.205,0.271,0.342,0.365c0.086,0.147,0.203,0.272,0.339,0.367
		c0.086,0.146,0.203,0.271,0.34,0.364c0.088,0.146,0.202,0.272,0.339,0.367c0.088,0.146,0.203,0.269,0.342,0.364
		c0.085,0.148,0.202,0.271,0.341,0.366c0.086,0.146,0.203,0.271,0.34,0.365c0.086,0.146,0.202,0.271,0.34,0.363
		c0.087,0.148,0.201,0.273,0.338,0.366c0.089,0.146,0.205,0.272,0.342,0.365c0.086,0.147,0.203,0.272,0.339,0.365
		c0.086,0.146,0.205,0.271,0.342,0.366c0.086,0.15,0.203,0.272,0.34,0.365c0.088,0.146,0.202,0.27,0.338,0.365
		c0.088,0.146,0.203,0.271,0.342,0.366c0.086,0.146,0.201,0.273,0.341,0.363c0.085,0.15,0.2,0.275,0.34,0.366
		c0.086,0.148,0.202,0.274,0.339,0.365c0.089,0.149,0.203,0.275,0.339,0.366c0.086,0.15,0.204,0.274,0.343,0.366
		c0.086,0.149,0.2,0.272,0.338,0.364c0.087,0.15,0.201,0.273,0.341,0.369c0.085,0.147,0.203,0.271,0.34,0.366
		c0.084,0.146,0.201,0.271,0.34,0.363c0.084,0.148,0.202,0.272,0.34,0.363c0.087,0.151,0.202,0.275,0.339,0.369
		c0.088,0.147,0.205,0.273,0.342,0.366c0.088,0.146,0.205,0.271,0.342,0.365c0.083,0.148,0.2,0.272,0.338,0.365
		c0.088,0.147,0.203,0.271,0.34,0.366c0.088,0.146,0.203,0.271,0.338,0.365c0.089,0.146,0.205,0.271,0.342,0.364
		c0.086,0.148,0.203,0.272,0.34,0.366c0.086,0.146,0.205,0.271,0.339,0.365c0.088,0.146,0.205,0.271,0.342,0.364
		c0.088,0.148,0.202,0.273,0.339,0.366c0.088,0.148,0.202,0.271,0.339,0.365c0.088,0.148,0.203,0.271,0.34,0.365
		c0.088,0.147,0.205,0.271,0.344,0.366c0.086,0.146,0.202,0.271,0.339,0.365c0.088,0.146,0.202,0.271,0.337,0.365
		c0.086,0.148,0.205,0.275,0.342,0.366c0.089,0.148,0.202,0.271,0.343,0.365c0.084,0.147,0.199,0.275,0.34,0.365
		c0.086,0.15,0.199,0.274,0.34,0.364c0.084,0.151,0.199,0.275,0.338,0.366c0.024,0.038,0.053,0.072,0.082,0.108h26.502
		c4.046,0,7.328-3.522,7.328-7.87v-27.3c-0.084-0.106-0.167-0.212-0.269-0.289C256.832,303.338,256.716,303.215,256.586,303.116z"/>
	<g id="_x38__29_">
		<path fill="#FFFFFF" d="M245.507,327.087c0,0.857-0.693,1.556-1.541,1.556H201c-0.854,0-1.545-0.699-1.545-1.556v-30.369
			c0-0.856,0.691-1.557,1.545-1.557h42.966c0.848,0,1.541,0.701,1.541,1.557V327.087z"/>
		<g>
			<g>
				<rect x="203.324" y="307.381" fill="#454545" width="24.172" height="21.262"/>
				<rect x="203.447" y="307.514" fill="#596474" width="23.918" height="21.129"/>
				<rect x="205.259" y="309.021" fill="#454545" width="20.298" height="19.622"/>
				<rect x="205.359" y="309.142" fill="#B2B4B5" width="20.098" height="19.501"/>
				<g>
					
						<radialGradient id="SVGID_3_" cx="-212.9424" cy="-288.4077" r="310.2904" gradientTransform="matrix(0.5491 0 0 0.5528 227.5703 402.2936)" gradientUnits="userSpaceOnUse">
						<stop  offset="0" style="stop-color:#FFFFFF"/>
						<stop  offset="1" style="stop-color:#010101"/>
					</radialGradient>
					<polygon fill="url(#SVGID_3_)" points="210.352,309.142 205.359,309.142 205.359,314.167 					"/>
					
						<radialGradient id="SVGID_4_" cx="-212.9624" cy="-288.4502" r="310.3519" gradientTransform="matrix(0.5491 0 0 0.5528 227.5703 402.2936)" gradientUnits="userSpaceOnUse">
						<stop  offset="0" style="stop-color:#FFFFFF"/>
						<stop  offset="1" style="stop-color:#010101"/>
					</radialGradient>
					<path fill="url(#SVGID_4_)" d="M225.457,309.394v-0.252h-8.42c-3.89,3.918-7.783,7.838-11.678,11.76v7.741h0.979
						C212.71,322.227,219.086,315.813,225.457,309.394z"/>
					
						<radialGradient id="SVGID_5_" cx="-212.9673" cy="-288.4272" r="310.3402" gradientTransform="matrix(0.5491 0 0 0.5528 227.5703 402.2936)" gradientUnits="userSpaceOnUse">
						<stop  offset="0" style="stop-color:#FFFFFF"/>
						<stop  offset="1" style="stop-color:#010101"/>
					</radialGradient>
					<polygon fill="url(#SVGID_5_)" points="225.457,323.536 225.457,321.216 218.079,328.643 220.385,328.643 					"/>
					
						<radialGradient id="SVGID_6_" cx="-213.0771" cy="-288.3638" r="310.4003" gradientTransform="matrix(0.5491 0 0 0.5528 227.5703 402.2936)" gradientUnits="userSpaceOnUse">
						<stop  offset="0" style="stop-color:#FFFFFF"/>
						<stop  offset="1" style="stop-color:#010101"/>
					</radialGradient>
					<polygon fill="url(#SVGID_6_)" points="222.972,328.643 225.457,328.643 225.457,326.145 					"/>
					
						<radialGradient id="SVGID_7_" cx="-212.9434" cy="-288.4678" r="310.3461" gradientTransform="matrix(0.5491 0 0 0.5528 227.5703 402.2936)" gradientUnits="userSpaceOnUse">
						<stop  offset="0" style="stop-color:#FFFFFF"/>
						<stop  offset="1" style="stop-color:#010101"/>
					</radialGradient>
					<path fill="url(#SVGID_7_)" d="M225.457,318.609v-2.484c-4.143,4.177-8.289,8.35-12.432,12.518h2.464L225.457,318.609z"/>
				</g>
				<g>
					<rect x="215.337" y="309.142" fill="#939393" width="0.07" height="19.501"/>
					<rect x="215.408" y="309.142" fill="#596474" width="0.075" height="19.501"/>
				</g>
				<g>
					<path fill="#A3A2A2" d="M243.94,310.512c0,0.456-0.236,0.83-0.521,0.83h-13.397c-0.29,0-0.518-0.375-0.518-0.83v-2.066
						c0-0.454,0.228-0.825,0.518-0.825h13.397c0.284,0,0.521,0.371,0.521,0.825V310.512z"/>
					<g>
						<path fill="#B2B4B5" d="M229.624,308.446v2.066c0,0.35,0.175,0.632,0.398,0.636l0,0h13.397
							c0.218-0.004,0.393-0.287,0.393-0.636l0,0v-2.066c0-0.344-0.175-0.633-0.393-0.633l0,0h-13.397
							C229.798,307.813,229.624,308.102,229.624,308.446L229.624,308.446z"/>
					</g>
					<g>
						
							<radialGradient id="SVGID_8_" cx="131.019" cy="242.8823" r="37.6697" gradientTransform="matrix(0.7332 0 0 1.1702 138.4795 -13.4749)" gradientUnits="userSpaceOnUse">
							<stop  offset="0" style="stop-color:#FFFFFF"/>
							<stop  offset="1" style="stop-color:#010101"/>
						</radialGradient>
						<path fill="url(#SVGID_8_)" d="M243.726,308.446c-0.002-0.263-0.142-0.484-0.307-0.484h-13.397
							c-0.171-0.003-0.31,0.221-0.31,0.484h0.004l-0.004,2.066c0,0.109,0.03,0.204,0.065,0.281L243.726,308.446z"/>
					</g>
				</g>
				<g>
					<path fill="#A3A2A2" d="M243.94,316.848c0,0.454-0.236,0.825-0.521,0.825h-13.397c-0.29,0-0.518-0.371-0.518-0.825v-2.07
						c0-0.451,0.228-0.825,0.518-0.825h13.397c0.284,0,0.521,0.374,0.521,0.825V316.848z"/>
					<g>
						<path fill="#B2B4B5" d="M229.624,314.778v2.07c0,0.344,0.175,0.628,0.398,0.628l0,0h13.397c0.218,0,0.393-0.285,0.393-0.628
							l0,0v-2.07c0-0.345-0.175-0.63-0.393-0.63l0,0l-13.397-0.003C229.798,314.148,229.624,314.433,229.624,314.778
							L229.624,314.778z"/>
					</g>
					<g>
						
							<radialGradient id="SVGID_9_" cx="131.019" cy="248.2788" r="37.683" gradientTransform="matrix(0.7332 0 0 1.1702 138.4795 -13.4749)" gradientUnits="userSpaceOnUse">
							<stop  offset="0" style="stop-color:#FFFFFF"/>
							<stop  offset="1" style="stop-color:#010101"/>
						</radialGradient>
						<path fill="url(#SVGID_9_)" d="M243.726,314.778c-0.002-0.263-0.142-0.486-0.307-0.486h-13.397
							c-0.171,0-0.31,0.223-0.31,0.486h0.004l-0.004,2.07c0,0.103,0.03,0.2,0.065,0.276L243.726,314.778z"/>
					</g>
				</g>
				<g>
					<path fill="#A3A2A2" d="M243.94,323.178c0,0.455-0.236,0.826-0.521,0.826h-13.397c-0.29,0-0.518-0.371-0.518-0.826v-2.07
						c0-0.452,0.228-0.825,0.518-0.825h13.397c0.284,0,0.521,0.373,0.521,0.825V323.178z"/>
					<g>
						<path fill="#B2B4B5" d="M229.624,321.108v2.07c0,0.345,0.175,0.629,0.398,0.629l0,0h13.397c0.218,0,0.393-0.284,0.393-0.629
							l0,0v-2.07c0-0.343-0.175-0.629-0.393-0.629l0,0l-13.397-0.003C229.798,320.479,229.624,320.765,229.624,321.108
							L229.624,321.108z"/>
					</g>
					<g>
						
							<radialGradient id="SVGID_10_" cx="131.019" cy="253.6772" r="37.6962" gradientTransform="matrix(0.7332 0 0 1.1702 138.4795 -13.4749)" gradientUnits="userSpaceOnUse">
							<stop  offset="0" style="stop-color:#FFFFFF"/>
							<stop  offset="1" style="stop-color:#010101"/>
						</radialGradient>
						<path fill="url(#SVGID_10_)" d="M243.726,321.108c-0.002-0.263-0.142-0.484-0.307-0.484h-13.397
							c-0.171,0-0.31,0.222-0.31,0.484h0.004l-0.004,2.07c0,0.104,0.03,0.2,0.065,0.279L243.726,321.108z"/>
					</g>
				</g>
			</g>
			<g>
				<path fill="#CCCCCC" d="M217.299,320.408c0,0.076-0.063,0.147-0.144,0.147h-0.225c-0.081,0-0.146-0.071-0.146-0.147v-2.776
					c0-0.078,0.064-0.145,0.146-0.145h0.225c0.08,0,0.144,0.066,0.144,0.145V320.408z"/>
				<path fill="#CCCCCC" d="M217.748,317.996c0,0.387-0.319,0.706-0.706,0.706c-0.388,0-0.704-0.319-0.704-0.706
					c0-0.392,0.316-0.711,0.704-0.711C217.428,317.285,217.748,317.604,217.748,317.996z"/>
			</g>
			<g>
				<path fill="#FFFFFF" d="M217.169,320.216c0,0.08-0.064,0.144-0.141,0.144h-0.226c-0.083,0-0.145-0.063-0.145-0.144v-2.776
					c0-0.08,0.062-0.145,0.145-0.145h0.226c0.076,0,0.141,0.065,0.141,0.145V320.216z"/>
				<path fill="#FFFFFF" d="M217.619,317.801c0,0.39-0.312,0.708-0.705,0.708c-0.389,0-0.704-0.319-0.704-0.708
					c0-0.391,0.315-0.708,0.704-0.708C217.306,317.093,217.619,317.411,217.619,317.801z"/>
			</g>
			<g>
				<path fill="#CCCCCC" d="M214.156,320.408c0,0.076-0.062,0.147-0.143,0.147h-0.228c-0.074,0-0.141-0.071-0.141-0.147v-2.776
					c0-0.078,0.066-0.145,0.141-0.145h0.228c0.081,0,0.143,0.066,0.143,0.145V320.408z"/>
				<path fill="#CCCCCC" d="M214.606,317.996c0,0.387-0.317,0.706-0.704,0.706c-0.391,0-0.706-0.319-0.706-0.706
					c0-0.392,0.315-0.711,0.706-0.711C214.289,317.285,214.606,317.604,214.606,317.996z"/>
			</g>
			<g>
				<path fill="#FFFFFF" d="M214.029,320.216c0,0.08-0.062,0.144-0.142,0.144h-0.229c-0.077,0-0.141-0.063-0.141-0.144v-2.776
					c0-0.08,0.063-0.145,0.141-0.145h0.229c0.079,0,0.142,0.065,0.142,0.145V320.216z"/>
				<circle fill="#FFFFFF" cx="213.773" cy="317.801" r="0.705"/>
			</g>
		</g>
		<g id="shadow_42_">
			<path id="shadow_43_" fill="#D7D6D6" d="M243.965,329.248c0.848,0,1.541-0.699,1.541-1.556v-25.324l-6.555-4.083h-39.497v3.927
				l44.93,27.036H243.965z"/>
		</g>
		<g>
			<path fill="#CDCCCC" d="M214.622,302.437c2.17,0,3.931-1.771,3.931-3.957h-7.862C210.69,300.666,212.452,302.437,214.622,302.437
				z"/>
			<path fill="#CDCCCC" d="M222.482,302.437c2.169,0,3.932-1.771,3.932-3.957h-7.861
				C218.552,300.666,220.31,302.437,222.482,302.437z"/>
			<path fill="#CDCCCC" d="M230.341,302.437c2.166,0,3.932-1.771,3.932-3.957h-7.859
				C226.414,300.666,228.171,302.437,230.341,302.437z"/>
			<path fill="#CDCCCC" d="M238.202,302.437c2.169,0,3.928-1.771,3.928-3.957h-7.856
				C234.273,300.666,236.028,302.437,238.202,302.437z"/>
			<path fill="#CDCCCC" d="M206.76,302.437c2.171,0,3.93-1.771,3.93-3.957h-7.86C202.83,300.666,204.589,302.437,206.76,302.437z"/>
			<path fill="#CDCCCC" d="M245.507,298.48h-3.378c0,1.911,1.59,3.507,3.378,3.875V298.48z"/>
			<path fill="#CDCCCC" d="M199.456,298.48v3.917c1.938-0.241,3.374-1.899,3.374-3.917H199.456z"/>
		</g>
		<g>
			<g>
				<polygon fill="#F2F2F2" points="249.205,297.721 195.758,297.721 200.751,289.257 244.213,289.257 				"/>
				<g>
					<polyline fill="#848283" points="202.83,297.721 205.478,289.257 199.962,289.257 194.971,297.721 202.83,297.721 					"/>
					<polyline fill="#848283" points="218.552,297.721 218.182,289.257 212.667,289.257 210.69,297.721 218.552,297.721 					"/>
					<polyline fill="#848283" points="226.414,297.721 226.781,289.257 232.296,289.257 234.273,297.721 226.414,297.721 					"/>
					<polyline fill="#848283" points="242.129,297.721 239.486,289.257 245.001,289.257 249.993,297.721 242.129,297.721 					"/>
				</g>
				<g>
					<path fill="#E7E7E7" d="M206.76,301.676c2.171,0,3.93-1.772,3.93-3.955h-7.86C202.83,299.904,204.589,301.676,206.76,301.676z"
						/>
					<path fill="#E7E7E7" d="M222.482,301.676c2.169,0,3.932-1.772,3.932-3.955h-7.861
						C218.552,299.904,220.31,301.676,222.482,301.676z"/>
					<path fill="#E7E7E7" d="M234.273,297.721c0,2.183,1.755,3.955,3.929,3.955c2.169,0,3.928-1.772,3.928-3.955H234.273z"/>
				</g>
				<g>
					<path fill="#9D9D9D" d="M198.904,301.676c2.169,0,3.926-1.772,3.926-3.955h-7.858
						C194.971,299.904,196.729,301.676,198.904,301.676z"/>
					<path fill="#9D9D9D" d="M214.622,301.676c2.17,0,3.931-1.772,3.931-3.955h-7.862
						C210.69,299.904,212.452,301.676,214.622,301.676z"/>
					<path fill="#9D9D9D" d="M230.341,301.676c2.173,0,3.932-1.772,3.932-3.955h-7.859
						C226.414,299.904,228.171,301.676,230.341,301.676z"/>
					<path fill="#9D9D9D" d="M242.129,297.721c0,2.183,1.762,3.955,3.932,3.955c2.174,0,3.932-1.772,3.932-3.955H242.129z"/>
				</g>
				<g>
					<path fill="#E0E1E0" d="M198.903,301.676c2.17,0,3.928-1.772,3.928-3.955h-7.86
						C194.97,299.904,196.729,301.676,198.903,301.676z"/>
					<path fill="#E0E1E0" d="M214.621,301.676c2.17,0,3.932-1.772,3.932-3.955h-7.863
						C210.689,299.904,212.451,301.676,214.621,301.676z"/>
					<path fill="#E0E1E0" d="M230.341,301.676c2.173,0,3.932-1.772,3.932-3.955h-7.859
						C226.414,299.904,228.171,301.676,230.341,301.676z"/>
					<path fill="#E0E1E0" d="M242.129,297.721c0,2.183,1.762,3.955,3.932,3.955c2.174,0,3.932-1.772,3.932-3.955H242.129z"/>
				</g>
			</g>
			<g>
				<path fill="#596474" d="M244.205,287.551v-9.742c0-1.078-0.881-1.958-1.947-1.958h-39.55c-1.07,0-1.948,0.881-1.948,1.958v9.742
					H244.205z"/>
				<g>
					<path fill="#F1627C" d="M202.101,277.809v8.395h40.76v-8.395c0-0.332-0.278-0.611-0.604-0.612l0,0h-39.55
						C202.385,277.198,202.103,277.48,202.101,277.809L202.101,277.809z"/>
				</g>
			</g>
			<g>
				<path fill="#E0E1E0" d="M245.001,289.257v-1.364c0-0.188-0.15-0.342-0.335-0.342h-44.367c-0.188,0-0.337,0.154-0.337,0.342
					v1.364H245.001z"/>
			</g>
		</g>
	</g>
	<text transform="matrix(1 0 0 1 206.7588 284.8862)" fill="#E1E2E2" font-family="'UbuntuTitling-Bold'" font-size="10.161">CLOSED</text>
</g>
<path id="color_29_" fill="#596373" d="M136.6,125.096c0,6.611-5.361,11.971-11.971,11.971H16.567
	c-6.611,0-11.967-5.359-11.967-11.971V17.036c0-6.607,5.355-11.967,11.967-11.967h108.062c6.609,0,11.971,5.359,11.971,11.967
	V125.096z"/>
<path fill="#CCCCCC" d="M37.82,111.722"/>
<path fill="#ECECEC" d="M53.677,91.545l44.991,45.522h25.961c0,0,11.971-2.042,11.971-11.971s0-33.551,0-33.551L90.191,52.308
	L53.677,91.545z"/>
<g id="Ellipse_12_11_">
	<g>
		<path fill="#BDC3C7" d="M97.437,73.72V66.13l-6.142-1.696l-2.041-5.167l2.976-5.528l-5.389-5.366l-5.549,3.124l-5.122-2.226
			l-1.818-6.004h-7.619l-1.706,6.117l-5.121,2.103l-5.549-3.123l-5.389,5.363l2.977,5.527l-2.041,5.18l-6.143,1.696v7.589
			l6.028,1.81l2.233,5.12l-3.134,5.528l5.387,5.367l5.546-2.963l5.204,2.032l1.706,6.119h7.619l1.818-6.006l5.206-2.169l5.547,2.961
			l5.387-5.363l-3.138-5.525l2.237-5.102L97.437,73.72z M70.542,80.535c-5.873,0-10.633-4.744-10.633-10.592
			c0-5.85,4.76-10.59,10.633-10.59c5.875,0,10.633,4.74,10.633,10.59C81.175,75.791,76.417,80.535,70.542,80.535z"/>
	</g>
</g>
<circle fill="#596373" cx="70.6" cy="69.666" r="11.282"/>
</svg>
